<?xml version="1.0" encoding="utf-8"?>
<!-- Generator: Adobe Illustrator 27.0.0, SVG Export Plug-In . SVG Version: 6.00 Build 0)  -->
<svg version="1.1" id="svg5" xmlns="http://www.w3.org/2000/svg" xmlns:xlink="http://www.w3.org/1999/xlink" x="0px" y="0px"
	 viewBox="0 0 513 513" style="enable-background:new 0 0 513 513;" xml:space="preserve">
<style type="text/css">
	.st0{fill:none;}
	.st1{fill:#E56588;stroke:#000000;stroke-width:0.2;stroke-miterlimit:10;}
</style>
<g id="layer8">
	<rect id="rect1042" x="57.5" y="57.9" class="st0" width="398" height="398"/>
</g>
<g id="layer1">
	<path id="path8365" class="st1" d="M167,289.3c-16.2-24.9-49.6-31.9-74.5-15.7s-31.9,49.6-15.6,74.5c16.2,24.9,49.6,31.9,74.5,15.7
		S183.3,314.2,167,289.3L167,289.3z"/>
	<path id="path8363" class="st1" d="M317.2,207c0,0-23.7,89.3-27.6,91.8s-95.3,3.4-95.3,3.4s-15.4,94.7-9.8,104.7
		c5.6,10,172.9,49.2,207.3,48.6c12.9-25.3,56.4-187.5,52.9-194.5C441.2,253.9,317.2,207,317.2,207L317.2,207z M352.9,261.6
		c17.4,2.7,38,12,52.8,21.5c-3,37.7-23.3,102.8-37.7,135.9c-43.2-0.8-108.8-17-148.1-36.1c0-8.9,1-28.2,3.3-42.6
		c24,2,70.1,4.4,94.2,1.1C330.2,321.6,344.6,282.9,352.9,261.6L352.9,261.6z"/>
	<path id="rect846" class="st1" d="M131.7,58.4C121.4,76.4,93.4,223,96,227.7c2.6,4.7,68.4,28.8,68.4,28.8s36.1-85.4,39.5-87.4
		s99.6,16.9,99.6,16.9s16.4-75.1,12.3-82C311.7,96.9,155.2,58.7,131.7,58.4L131.7,58.4z"/>
	<path id="path10342" class="st1" d="M361.8,284.3c-5.7,20.3-19.9,54.8-31.5,76.8c-23.3,0.7-66-1.9-87.4-4.7
		c-1.2,5.4-2.2,10.5-3,15.2C271.5,385.3,322,396.4,355,399c11.6-28.5,26-76.3,30.6-105.6C378.6,290,369.6,286.7,361.8,284.3
		L361.8,284.3z"/>
</g>
</svg>
