<?xml version="1.0" encoding="UTF-8"?>
<svg width="60" height="25" version="1.1" viewBox="0 0 60 25" xmlns="http://www.w3.org/2000/svg" xmlns:xlink="http://www.w3.org/1999/xlink">
	<defs>
		<linearGradient id="linearGradient1" x1="30" x2="53.858" y1="67.947" y2="67.947" gradientUnits="userSpaceOnUse" xlink:href="#swatch10"/>
		<linearGradient id="swatch10">
			<stop stop-color="#da1c5c" offset="0"/>
		</linearGradient>
	</defs>
	<g fill="url(#linearGradient1)" fill-rule="evenodd">
		<path d="m7.4995 10c-1.3805 0-2.4995 1.118-2.4995 2.4971s1.1191 2.4971 2.4995 2.4971h14.063c1.0336-0.01031 2.1776 0.22872 2.9212 0.87601 0.72582 0.62898 1.2502 1.6041 1.2736 2.5064 0.05221 0.73896-0.22239 1.5729-0.70248 2.1746-0.47565 0.60248-1.2481 1.0474-1.9724 1.0827-1.192 0.14191-2.6591-1.056-2.6274-2.1108-0.09995-0.98928 0.87-2.0827 1.6896-2.0397 0.79792-0.038 1.5327 0.7218 1.467 1.3124-0.02853 0.59658-0.58431 0.99807-0.9488 0.90958-0.13972-0.02154-0.26735-0.10842-0.35033-0.20598-0.10785-0.12687-0.11251-0.28642-0.05657-0.38461 0.03121-0.06853 0.22292-0.17819 0.2518-0.06198 3.18e-4 -0.13828-0.23786-0.08823-0.32843 0.0055-0.09666 0.1061-0.17303 0.32507-0.05839 0.55778 0.07277 0.15541 0.21194 0.32403 0.42878 0.42289 0.51275 0.20709 1.5798 0.0039 1.8666-1.0882 0.24686-1.0378-0.38247-2.645-2.0983-2.9639-1.7112-0.25153-3.9105 0.92446-4.2404 3.3685-0.21984 2.5177 1.6325 5.3203 4.8735 5.627 1.7503 0.13201 3.5471-0.47933 4.8863-1.7754 1.2524-1.2097 2.0624-2.8888 2.1585-4.7594 0.07576-2.2059-0.78538-4.3558-2.4048-5.9095-1.5606-1.4974-3.6599-2.5277-6.0285-2.5381h-9.0634z" style="paint-order:fill markers stroke"/>
		<path d="m37.5 15c-1.3805 0-2.4995-1.118-2.4995-2.4971s1.1191-2.4971 2.4995-2.4971h14.063c1.0336 0.01031 2.1776-0.22872 2.9212-0.87601 0.72582-0.62898 1.2502-1.6041 1.2736-2.5064 0.05221-0.73896-0.22239-1.5729-0.70248-2.1746-0.47565-0.60248-1.2481-1.0474-1.9724-1.0827-1.192-0.14191-2.6591 1.056-2.6274 2.1108-0.09995 0.98928 0.87 2.0827 1.6896 2.0397 0.79792 0.038 1.5327-0.7218 1.467-1.3124-0.02853-0.59658-0.58431-0.99807-0.9488-0.90958-0.13972 0.02154-0.26735 0.10842-0.35033 0.20598-0.10785 0.12687-0.11251 0.28642-0.05657 0.38461 0.03121 0.06853 0.22292 0.17819 0.2518 0.06198 3.18e-4 0.13828-0.23786 0.08823-0.32843-0.0055-0.09666-0.1061-0.17303-0.32507-0.05839-0.55778 0.07277-0.15541 0.21194-0.32403 0.42878-0.42289 0.51275-0.20709 1.5798-0.0039 1.8666 1.0882 0.24686 1.0378-0.38247 2.645-2.0983 2.9639-1.7112 0.25153-3.9105-0.92446-4.2404-3.3685-0.21984-2.5177 1.6325-5.3203 4.8735-5.627 1.7503-0.13201 3.5471 0.47933 4.8863 1.7754 1.2524 1.2097 2.0624 2.8888 2.1585 4.7594 0.07576 2.2059-0.78538 4.3558-2.4048 5.9095-1.5606 1.4974-3.6599 2.5277-6.0285 2.5381h-9.0634z" style="paint-order:fill markers stroke"/>
	</g>
</svg>
