<?xml version="1.0" encoding="UTF-8"?>
<svg id="svg5" xmlns="http://www.w3.org/2000/svg" viewBox="0 0 513 513">
  <defs>
    <style>
      .cls-1 {
        fill: #b72650;
        stroke: #000;
        stroke-miterlimit: 10;
        stroke-width: .2px;
      }

      .cls-2 {
        fill: none;
        stroke: rgba(0, 0, 0, 0);
        stroke-linecap: square;
        stroke-linejoin: round;
        stroke-width: 2.2px;
      }
    </style>
  </defs>
  <g id="layer8">
    <rect id="rect1042" class="cls-2" x="57.5" y="57.9" width="398" height="398"/>
  </g>
  <g id="layer1">
    <path id="path8365" class="cls-1" d="M167,289.3c-16.2-24.9-49.6-31.9-74.5-15.7s-31.9,49.6-15.6,74.5c16.2,24.9,49.6,31.9,74.5,15.7s31.9-49.6,15.6-74.5h0Z"/>
    <path id="path8363" class="cls-1" d="M317.2,207s-23.7,89.3-27.6,91.8-95.3,3.4-95.3,3.4c0,0-15.4,94.7-9.8,104.7,5.6,10,172.9,49.2,207.3,48.6,12.9-25.3,56.4-187.5,52.9-194.5-3.5-7.1-127.5-54-127.5-54Zm35.7,54.6c17.4,2.7,38,12,52.8,21.5-3,37.7-23.3,102.8-37.7,135.9-43.2-.8-108.8-17-148.1-36.1,0-8.9,1-28.2,3.3-42.6,24,2,70.1,4.4,94.2,1.1,12.8-19.8,27.2-58.5,35.5-79.8Z"/>
    <path id="rect846" class="cls-1" d="M131.7,58.4c-10.3,18-38.3,164.6-35.7,169.3,2.6,4.7,68.4,28.8,68.4,28.8,0,0,36.1-85.4,39.5-87.4s99.6,16.9,99.6,16.9c0,0,16.4-75.1,12.3-82-4.1-7.1-160.6-45.3-184.1-45.6Z"/>
    <path id="path10342" class="cls-1" d="M361.8,284.3c-5.7,20.3-19.9,54.8-31.5,76.8-23.3,.7-66-1.9-87.4-4.7-1.2,5.4-2.2,10.5-3,15.2,31.6,13.7,82.1,24.8,115.1,27.4,11.6-28.5,26-76.3,30.6-105.6-7-3.4-16-6.7-23.8-9.1Z"/>
  </g>
</svg>